<svg id="Capa_1" enable-background="new 0 0 512 512" height="512" viewBox="0 0 512 512" width="512" xmlns="http://www.w3.org/2000/svg"><g><path d="m10 343.293c5.522 0 10-4.505 10-10.028s-4.478-10-10-10-10 4.477-10 10v.057c0 5.522 4.478 9.971 10 9.971z"/><path d="m474.164 41h-436.328c-20.863 0-37.836 16.963-37.836 37.813v209.588c0 5.523 4.478 10 10 10s10-4.477 10-10v-124.873h472v269.659c0 9.822-8.001 17.813-17.836 17.813h-436.328c-9.835 0-17.836-7.991-17.836-17.813v-55.031c0-5.523-4.478-10-10-10s-10 4.477-10 10v55.031c0 20.85 16.973 37.813 37.836 37.813h436.328c20.863 0 37.836-16.963 37.836-37.813v-354.374c0-20.85-16.973-37.813-37.836-37.813zm-454.164 102.528v-64.715c0-9.822 8.001-17.813 17.836-17.813h436.328c9.835 0 17.836 7.991 17.836 17.813v64.715z"/><path d="m243.769 92.264h-167.893c-5.522 0-10 4.477-10 10s4.478 10 10 10h167.893c5.522 0 10-4.477 10-10s-4.478-10-10-10z"/><path d="m329.799 92.264c-5.522 0-10 4.477-10 10s4.478 10 10 10h.057c5.522 0 9.972-4.477 9.972-10s-4.507-10-10.029-10z"/><path d="m382.947 92.264c-5.522 0-10 4.477-10 10s4.478 10 10 10h.028c5.522 0 9.986-4.477 9.986-10s-4.491-10-10.014-10z"/><path d="m436.067 92.264c-5.522 0-10 4.477-10 10s4.478 10 10 10h.057c5.522 0 9.972-4.477 9.972-10s-4.506-10-10.029-10z"/><path d="m219.377 329.855c1.953 1.954 4.513 2.93 7.072 2.93s5.117-.976 7.07-2.928l21.772-21.765 21.772 21.765c1.953 1.952 4.512 2.928 7.07 2.928 2.56 0 5.12-.977 7.072-2.93 3.904-3.906 3.903-10.237-.002-14.142l-21.768-21.76 21.768-21.76c3.905-3.905 3.906-10.236.002-14.142-3.905-3.906-10.235-3.906-14.143-.002l-21.772 21.765-21.772-21.765c-3.906-3.905-10.238-3.903-14.143.002-3.904 3.906-3.903 10.237.002 14.142l21.768 21.76-21.768 21.76c-3.903 3.905-3.904 10.236 0 14.142z"/><path d="m115.061 329.937c1.953 1.956 4.515 2.934 7.076 2.934 2.557 0 5.114-.975 7.066-2.924l21.79-21.761 21.79 21.761c1.952 1.95 4.509 2.924 7.066 2.924 2.562 0 5.123-.978 7.075-2.934 3.903-3.908 3.899-10.239-.009-14.142l-21.771-21.743 21.771-21.743c3.908-3.903 3.912-10.234.009-14.142-3.9-3.907-10.233-3.913-14.142-.009l-21.79 21.761-21.79-21.761c-3.907-3.902-10.239-3.899-14.143.009-3.902 3.908-3.898 10.239.01 14.142l21.771 21.743-21.771 21.743c-3.907 3.902-3.911 10.234-.008 14.142z"/><path d="m325.077 329.938c1.953 1.955 4.514 2.932 7.074 2.932 2.558 0 5.116-.976 7.068-2.926l21.773-21.756 21.773 21.756c1.952 1.951 4.511 2.926 7.068 2.926 2.561 0 5.121-.978 7.074-2.932 3.903-3.907 3.9-10.239-.006-14.142l-21.762-21.745 21.762-21.745c3.906-3.903 3.909-10.235.006-14.142-3.905-3.908-10.237-3.909-14.143-.005l-21.773 21.756-21.771-21.755c-3.907-3.905-10.239-3.901-14.143.005-3.903 3.907-3.9 10.239.006 14.142l21.762 21.745-21.762 21.745c-3.906 3.903-3.909 10.234-.006 14.141z"/><path d="m430.001 373.598c14.11 0 25.591-11.474 25.591-25.578v-107.91c0-14.119-11.48-25.606-25.591-25.606h-348.002c-14.11 0-25.591 11.487-25.591 25.606v107.91c0 14.104 11.48 25.578 25.591 25.578zm-353.593-25.577v-107.91c0-3.091 2.508-5.606 5.591-5.606h348.002c3.03 0 5.591 2.567 5.591 5.606v107.91c0 3.023-2.561 5.578-5.591 5.578h-348.002c-3.03-.001-5.591-2.555-5.591-5.578z"/></g></svg>